<svg width="100" height="100" viewBox="0 0 100 100" fill="none" xmlns="http://www.w3.org/2000/svg">
    <path d="M16.8261 5V12.8261H9V95H91.1739V28.4783H59.8696V12.8261H52.0435V5H16.8261ZM20.7391 8.91304H48.1304V16.7391H55.9565V91.087H38.3478V77.3913H30.5217V91.087H12.913V16.7391H20.7391V8.91304ZM20.7391 20.6522V24.5652H24.6522V20.6522H20.7391ZM28.5652 20.6522V24.5652H32.4783V20.6522H28.5652ZM36.3913 20.6522V24.5652H40.3043V20.6522H36.3913ZM44.2174 20.6522V24.5652H48.1304V20.6522H44.2174ZM20.7391 30.4348V38.2609H24.6522V30.4348H20.7391ZM28.5652 30.4348V38.2609H32.4783V30.4348H28.5652ZM36.3913 30.4348V38.2609H40.3043V30.4348H36.3913ZM44.2174 30.4348V38.2609H48.1304V30.4348H44.2174ZM59.8696 32.3913H87.2609V91.087H59.8696V32.3913ZM63.7826 36.3043V40.2174H67.6957V36.3043H63.7826ZM71.6087 36.3043V40.2174H75.5217V36.3043H71.6087ZM79.4348 36.3043V40.2174H83.3478V36.3043H79.4348ZM20.7391 42.1739V50H24.6522V42.1739H20.7391ZM28.5652 42.1739V50H32.4783V42.1739H28.5652ZM36.3913 42.1739V50H40.3043V42.1739H36.3913ZM44.2174 42.1739V50H48.1304V42.1739H44.2174ZM63.7826 44.1304V48.0435H67.6957V44.1304H63.7826ZM71.6087 44.1304V48.0435H75.5217V44.1304H71.6087ZM79.4348 44.1304V48.0435H83.3478V44.1304H79.4348ZM63.7826 51.9565V55.8696H67.6957V51.9565H63.7826ZM71.6087 51.9565V55.8696H75.5217V51.9565H71.6087ZM79.4348 51.9565V55.8696H83.3478V51.9565H79.4348ZM20.7391 53.913V61.7391H24.6522V53.913H20.7391ZM28.5652 53.913V61.7391H32.4783V53.913H28.5652ZM36.3913 53.913V61.7391H40.3043V53.913H36.3913ZM44.2174 53.913V61.7391H48.1304V53.913H44.2174ZM63.7826 59.7826V63.6957H67.6957V59.7826H63.7826ZM71.6087 59.7826V63.6957H75.5217V59.7826H71.6087ZM79.4348 59.7826V63.6957H83.3478V59.7826H79.4348ZM20.7391 65.6522V73.4783H24.6522V65.6522H20.7391ZM28.5652 65.6522V73.4783H32.4783V65.6522H28.5652ZM36.3913 65.6522V73.4783H40.3043V65.6522H36.3913ZM44.2174 65.6522V73.4783H48.1304V65.6522H44.2174ZM63.7826 67.6087V71.5217H67.6957V67.6087H63.7826ZM71.6087 67.6087V71.5217H75.5217V67.6087H71.6087ZM79.4348 67.6087V71.5217H83.3478V67.6087H79.4348ZM63.7826 75.4348V79.3478H67.6957V75.4348H63.7826ZM71.6087 75.4348V79.3478H75.5217V75.4348H71.6087ZM79.4348 75.4348V79.3478H83.3478V75.4348H79.4348ZM20.7391 77.3913V87.1739H24.6522V77.3913H20.7391ZM44.2174 77.3913V87.1739H48.1304V77.3913H44.2174ZM63.7826 83.2609V87.1739H67.6957V83.2609H63.7826ZM71.6087 83.2609V87.1739H75.5217V83.2609H71.6087ZM79.4348 83.2609V87.1739H83.3478V83.2609H79.4348Z" fill="black"/>
</svg>
