<svg width="100" height="100" viewBox="0 0 100 100" fill="none" xmlns="http://www.w3.org/2000/svg">
    <g clip-path="url(#clip0_1118_1652)">
        <path fill-rule="evenodd" clip-rule="evenodd" d="M34.5058 41.0003H17.4912C14.9946 40.9798 12.5921 41.9518 10.8122 43.7025C9.03216 45.4531 8.02058 47.8391 8 50.3355V85.6666C8.0462 90.8634 12.2947 95.0396 17.4912 94.9958H34.5058C37.0022 95.0168 39.405 94.0449 41.1851 92.2943C42.9652 90.5436 43.9767 88.1576 43.9971 85.6606V50.3355C43.9767 47.8391 42.9652 45.4531 41.1851 43.7025C39.405 41.9518 37.0022 40.9798 34.5058 41.0003Z"
              stroke="#FFF" stroke-width="5.99951" stroke-linecap="round" stroke-linejoin="round"/>
        <path fill-rule="evenodd" clip-rule="evenodd" d="M34.5058 5.00362H17.4912C12.3992 4.86239 8.15353 8.86922 8 13.9609V20.0444C8.15353 25.1361 12.3992 29.1429 17.4912 29.0016H34.5058C39.5976 29.1429 43.8435 25.1361 43.9971 20.0444V13.9609C43.8435 8.86922 39.5976 4.86239 34.5058 5.00362Z"
              stroke="#FFF" stroke-width="5.99951" stroke-linecap="round" stroke-linejoin="round"/>
        <path fill-rule="evenodd" clip-rule="evenodd" d="M65.4873 58.999H82.4959C84.9935 59.0212 87.3975 58.0499 89.1788 56.2993C90.96 54.548 91.9728 52.1614 91.9932 49.6638V14.3385C91.9728 11.842 90.9612 9.45585 89.1812 7.70513C87.4011 5.95442 84.9983 4.9825 82.5019 5.00326H65.4873C62.9909 4.9825 60.5881 5.95442 58.8081 7.70513C57.028 9.45585 56.0165 11.842 55.9961 14.3385V49.6638C56.0165 52.1602 57.028 54.5462 58.8081 56.2969C60.5881 58.0475 62.9909 59.0194 65.4873 58.999Z"
              stroke="#FFF" stroke-width="5.99951" stroke-linecap="round" stroke-linejoin="round"/>
        <path fill-rule="evenodd" clip-rule="evenodd" d="M65.4873 94.9962H82.4959C87.5901 95.1408 91.8396 91.1331 91.9932 86.0389V79.9554C91.8396 74.8637 87.5937 70.8572 82.5019 70.9982H65.4873C60.3955 70.8572 56.1497 74.8637 55.9961 79.9554V86.0329C56.1461 91.1271 60.3931 95.1372 65.4873 94.9962Z"
              stroke="#FFF" stroke-width="5.99951" stroke-linecap="round" stroke-linejoin="round"/>
    </g>
    <defs>
        <clipPath id="clip0_1118_1652">
            <rect width="100" height="100" fill="white"/>
        </clipPath>
    </defs>
</svg>
