<svg width="100" height="100" viewBox="0 0 100 100" fill="none" xmlns="http://www.w3.org/2000/svg">
    <path d="M56.5016 21.0833C56.5016 24.9954 53.3304 28.1667 49.4183 28.1667C45.5062 28.1667 42.335 24.9954 42.335 21.0833C42.335 17.1713 45.5062 14 49.4183 14C53.3304 14 56.5016 17.1713 56.5016 21.0833Z" stroke="#fff" stroke-width="4.57692"/>
    <path d="M49.4167 60.041L51.723 58.7232C51.2502 57.8958 50.3697 57.3848 49.4167 57.3848C48.4636 57.3848 47.5831 57.8958 47.1103 58.7232L49.4167 60.041ZM43.5566 39.9327C45.0154 40.0868 46.323 39.0291 46.4771 37.5702C46.6311 36.1113 45.5736 34.8037 44.1148 34.6496L43.5566 39.9327ZM54.7185 34.6496C53.2597 34.8037 52.2022 36.1113 52.3562 37.5702C52.5103 39.0291 53.8179 40.0868 55.2767 39.9327L54.7185 34.6496ZM27.4959 47.8605L35.2001 50.4286L36.8801 45.3888L29.1759 42.8207L27.4959 47.8605ZM36.372 52.912L31.9563 64.3927L36.9147 66.2998L41.3304 54.8188L36.372 52.912ZM69.6573 42.8207L61.9531 45.3888L63.6333 50.4286L71.3375 47.8605L69.6573 42.8207ZM57.503 54.8188L61.9187 66.2998L66.8771 64.3927L62.4613 52.912L57.503 54.8188ZM46.142 71.1257L51.723 61.3589L47.1103 58.7232L41.5293 68.49L46.142 71.1257ZM67.0875 32.288L60.3668 33.7281L61.4799 38.9227L68.2006 37.4826L67.0875 32.288ZM38.4664 33.7281L31.7459 32.288L30.6328 37.4826L37.3533 38.9227L38.4664 33.7281ZM47.1103 61.3589L52.6913 71.1257L57.304 68.49L51.723 58.7232L47.1103 61.3589ZM60.3668 33.7281C59.9896 33.809 59.8136 33.8467 59.6397 33.8827L60.7156 39.085C60.9122 39.0444 61.1098 39.002 61.4799 38.9227L60.3668 33.7281ZM37.3533 38.9227C37.7235 39.002 37.921 39.0444 38.1177 39.085L39.1938 33.8827C39.0199 33.8467 38.8437 33.809 38.4664 33.7281L37.3533 38.9227ZM39.3054 75.0931C42.131 75.0931 44.7399 73.579 46.142 71.1257L41.5293 68.49C41.0733 69.2883 40.2246 69.7806 39.3054 69.7806V75.0931ZM61.9187 66.2998C62.564 67.9775 61.3255 69.7806 59.5278 69.7806V75.0931C65.0538 75.0931 68.8608 69.55 66.8771 64.3927L61.9187 66.2998ZM61.9531 45.3888C61.1672 45.6509 60.3307 45.9108 59.6514 46.3298L62.4418 50.8508C62.4103 50.8699 62.4369 50.8469 62.642 50.7693C62.8573 50.6878 63.1477 50.5904 63.6333 50.4286L61.9531 45.3888ZM62.4613 52.912C62.2775 52.4342 62.1681 52.1481 62.0941 51.9299C62.0236 51.7227 62.0246 51.6876 62.0296 51.7241L56.766 52.4438C56.8744 53.2346 57.2055 54.0457 57.503 54.8188L62.4613 52.912ZM59.6514 46.3298C57.565 47.6179 56.4341 50.0146 56.766 52.4438L62.0296 51.7241C61.9821 51.377 62.1436 51.0346 62.4418 50.8508L59.6514 46.3298ZM71.5521 40.192C71.5521 41.3847 70.7888 42.4435 69.6573 42.8207L71.3375 47.8605C74.6383 46.7605 76.8646 43.6714 76.8646 40.192H71.5521ZM31.9563 64.3927C29.9727 69.55 33.7796 75.0931 39.3054 75.0931V69.7806C37.5078 69.7806 36.2694 67.9775 36.9147 66.2998L31.9563 64.3927ZM35.2001 50.4286C35.6857 50.5904 35.9761 50.6878 36.1915 50.7693C36.3965 50.8469 36.4228 50.8699 36.3915 50.8508L39.182 46.3298C38.5027 45.9108 37.6661 45.6509 36.8801 45.3888L35.2001 50.4286ZM41.3304 54.8188C41.6279 54.0457 41.959 53.2346 42.0672 52.4438L36.8037 51.7241C36.8086 51.6876 36.8097 51.7224 36.7393 51.9299C36.6652 52.1481 36.5558 52.4342 36.372 52.912L41.3304 54.8188ZM36.3915 50.8508C36.6895 51.0346 36.8511 51.377 36.8037 51.7241L42.0672 52.4438C42.3992 50.0146 41.2683 47.6179 39.182 46.3298L36.3915 50.8508ZM21.9688 40.192C21.9688 43.6714 24.1951 46.7605 27.4959 47.8605L29.1759 42.8207C28.0444 42.4435 27.2812 41.3847 27.2812 40.192H21.9688ZM27.2812 40.192C27.2812 38.4279 28.9078 37.1129 30.6328 37.4826L31.7459 32.288C26.7138 31.2097 21.9688 35.0457 21.9688 40.192H27.2812ZM52.6913 71.1257C54.0934 73.579 56.7022 75.0931 59.5278 75.0931V69.7806C58.6087 69.7806 57.7601 69.2883 57.304 68.49L52.6913 71.1257ZM76.8646 40.192C76.8646 35.0457 72.1195 31.2097 67.0875 32.288L68.2006 37.4826C69.9254 37.1129 71.5521 38.4279 71.5521 40.192H76.8646ZM44.1148 34.6496C42.4658 34.4754 40.8236 34.2198 39.1938 33.8827L38.1177 39.085C39.919 39.4576 41.7342 39.7402 43.5566 39.9327L44.1148 34.6496ZM59.6397 33.8827C58.0098 34.2198 56.3675 34.4754 54.7185 34.6496L55.2767 39.9327C57.0992 39.7402 58.9143 39.4576 60.7156 39.085L59.6397 33.8827Z" fill="#fff"/>
    <path d="M75.8152 60.043C81.4234 62.8625 84.8333 66.5862 84.8333 70.668C84.8333 73.3186 83.3954 75.8179 80.8518 78.0166M23.0182 60.043C17.4101 62.8625 14 66.5862 14 70.668C14 79.4701 29.8566 86.6055 49.4167 86.6055C55.8675 86.6055 61.9156 85.8295 67.125 84.4734"
      stroke="#FFF" stroke-width="4.57692" stroke-linecap="round"/>
</svg>
