<svg width="100" height="100" viewBox="0 0 100 100" fill="none" xmlns="http://www.w3.org/2000/svg">
    <g clip-path="url(#clip0_1118_1725)">
        <path fill-rule="evenodd" clip-rule="evenodd" d="M56.9915 33.4434C58.2385 33.4434 59.2494 32.4325 59.2494 31.1856C59.2494 29.9386 58.2385 28.9277 56.9915 28.9277H44.2194C42.9724 28.9277 41.9616 29.9386 41.9616 31.1856L41.9616 43.9577C41.9616 45.2046 42.9725 46.2155 44.2194 46.2155C45.4663 46.2156 46.4772 45.2046 46.4772 43.9577L46.4772 36.6364L61.7811 51.9403C62.6629 52.8221 64.0924 52.822 64.9741 51.9403C65.8559 51.0586 65.8559 49.629 64.9741 48.7473L49.6702 33.4434L56.9915 33.4434ZM59.2493 69.502L59.2493 56.7299C59.2493 55.483 58.2384 54.4721 56.9915 54.4721C55.7447 54.4721 54.7337 55.483 54.7337 56.7299V64.0512L39.4298 48.7473C38.5481 47.8655 37.1186 47.8655 36.2368 48.7473C35.355 49.629 35.3551 51.0586 36.2368 51.9403L51.5407 67.2442H44.2194C42.9725 67.2442 41.9616 68.2551 41.9616 69.502C41.9616 70.7489 42.9725 71.7598 44.2194 71.7598H56.9915C58.2384 71.7598 59.2493 70.7489 59.2493 69.502Z" fill="#5B0FBB"/>
        <rect x="50.1045" y="-12.8284" width="89" height="89" rx="44.5" transform="rotate(45 50.1045 -12.8284)" stroke="#5B0FBB" stroke-width="4"/>
    </g>
    <defs>
        <clipPath id="clip0_1118_1725">
            <rect width="100" height="100" fill="white"/>
        </clipPath>
    </defs>
</svg>
