<svg width="100" height="100" viewBox="0 0 100 100" fill="none" xmlns="http://www.w3.org/2000/svg">
    <path fill-rule="evenodd" clip-rule="evenodd" d="M39.7798 28.9699C40.9328 27.8169 40.9328 25.9475 39.7798 24.7944C38.6268 23.6414 36.7574 23.6414 35.6044 24.7944L23.7944 36.6044C22.6414 37.7574 22.6414 39.6268 23.7944 40.7798L35.6044 52.5897C36.7574 53.7427 38.6268 53.7427 39.7798 52.5897C40.9328 51.4368 40.9328 49.5673 39.7798 48.4143L33.0101 41.6446H61.3119C62.9426 41.6446 64.2644 40.3227 64.2644 38.6921C64.2644 37.0615 62.9426 35.7396 61.3119 35.7396H33.0101L39.7798 28.9699ZM75.2096 60.2242L63.3996 48.4143C62.2467 47.2614 60.3772 47.2614 59.2242 48.4143C58.0713 49.5673 58.0713 51.4368 59.2242 52.5897L65.994 59.3595H37.6921C36.0615 59.3595 34.7396 60.6813 34.7396 62.3119C34.7396 63.9426 36.0615 65.2644 37.6921 65.2644H65.994L59.2242 72.0342C58.0713 73.1871 58.0713 75.0566 59.2242 76.2096C60.3772 77.3625 62.2467 77.3625 63.3996 76.2096L75.2096 64.3996C76.3625 63.2467 76.3625 61.3772 75.2096 60.2242Z" fill="#5B0FBB"/>
    <rect x="4.38462" y="5.38462" width="90.2308" height="90.2308" rx="3.92308" stroke="#5B0FBB" stroke-width="5.23077"/>
</svg>
