<svg width="100" height="100" viewBox="0 0 100 100" fill="none" xmlns="http://www.w3.org/2000/svg">
    <g clip-path="url(#clip0_1118_1663)">
        <path d="M70.7492 79.8372L52.4526 69.7097C59.2528 64.3644 61.101 53.8594 61.101 47.9681V35.7065C61.101 27.5883 50.305 18.5467 39.4595 18.5467C28.6199 18.5467 17.5362 27.5883 17.5362 35.7065V47.9681C17.5362 53.3251 19.8029 64.1582 26.6728 69.6633L7.90544 79.8344C7.90544 79.8344 3 82.0178 3 84.7384V92.0959C3 94.8049 5.19989 97 7.90544 97H70.7492C73.4547 97 75.6546 94.802 75.6546 92.0959V84.7384C75.6546 81.8523 70.7463 79.8344 70.7463 79.8344L70.7492 79.8372ZM69.8425 91.1988H8.81214V86.0072C9.2277 85.7024 9.81182 85.3511 10.271 85.142C10.4076 85.081 10.5442 85.0142 10.6749 84.9387L29.4452 74.7677C31.1569 73.8386 32.2903 72.1197 32.4646 70.183C32.639 68.2464 31.8282 66.3504 30.3112 65.1338C25.4378 61.2285 23.3483 52.5847 23.3483 47.971V35.7094C23.3483 31.5371 31.2179 24.3566 39.4595 24.3566C47.8552 24.3566 55.2889 31.4412 55.2889 35.7094V47.971C55.2889 52.518 53.8765 61.2024 48.8607 65.1454C47.3263 66.3533 46.498 68.2522 46.6608 70.1946C46.8235 72.1371 47.9569 73.8734 49.6686 74.8083L67.9651 84.9359C68.125 85.023 68.3313 85.1188 68.4999 85.1943C68.93 85.3772 69.456 85.6791 69.8425 85.9463V91.1988ZM91.0887 65.3806L72.519 55.2531C79.3192 49.9077 81.4406 39.4027 81.4406 33.5115V21.2499C81.4406 13.1316 70.3743 4 59.5288 4C52.4816 4 45.2775 7.82975 41.084 12.7309C43.4757 12.879 46.1115 12.8819 48.3899 13.6078C51.4529 11.224 55.3238 9.80996 59.5288 9.80996C67.9245 9.80996 75.6285 16.9817 75.6285 21.2528V33.5144C75.6285 38.0613 73.9429 46.7457 68.93 50.6887C67.3927 51.8966 66.5673 53.7955 66.7301 55.738C66.8928 57.6833 68.0233 59.4167 69.7379 60.3517L88.3076 70.4792C88.4675 70.5663 88.6738 70.6621 88.8423 70.7376C89.2724 70.9205 89.7984 71.2225 90.1849 71.4896V76.655H78.4532C80.2259 77.9906 80.7606 79.9011 81.4493 82.462H91.0945C93.8001 82.462 96 80.2641 96 77.558V70.2904C95.9971 67.4014 91.0887 65.3806 91.0887 65.3806Z" fill="#FFF"/>
    </g>
    <defs>
        <clipPath id="clip0_1118_1663">
            <rect width="100" height="100" fill="white"/>
        </clipPath>
    </defs>
</svg>
