<svg width="100" height="100" viewBox="0 0 100 100" fill="none" xmlns="http://www.w3.org/2000/svg">
    <path d="M50 33.1523H86" stroke="#FFF" stroke-width="4" stroke-linecap="round" stroke-linejoin="round"/>
    <path d="M14 33.1523H21.2" stroke="#FFF" stroke-width="4" stroke-linecap="round" stroke-linejoin="round"/>
    <path d="M78.7998 65.5518H85.9998" stroke="#FFF" stroke-width="4" stroke-linecap="round" stroke-linejoin="round"/>
    <path d="M14 65.5518H50" stroke="#FFF" stroke-width="4" stroke-linecap="round" stroke-linejoin="round"/>
    <path d="M35.6002 47.5519C43.553 47.5519 50.0002 41.1047 50.0002 33.152C50.0002 25.199 43.553 18.752 35.6002 18.752C27.6473 18.752 21.2002 25.199 21.2002 33.152C21.2002 41.1047 27.6473 47.5519 35.6002 47.5519Z" stroke="#FFF" stroke-width="4" stroke-linecap="round" stroke-linejoin="round"/>
    <path d="M64.4 79.9523C72.3528 79.9523 78.8 73.5051 78.8 65.5523C78.8 57.5996 72.3528 51.1523 64.4 51.1523C56.4472 51.1523 50 57.5996 50 65.5523C50 73.5051 56.4472 79.9523 64.4 79.9523Z" stroke="#FFF" stroke-width="4" stroke-linecap="round" stroke-linejoin="round"/>
</svg>
