<svg width="100" height="100" viewBox="0 0 100 100" fill="none" xmlns="http://www.w3.org/2000/svg">
    <circle cx="52" cy="53" r="45" fill="#24E04D"/>
    <path d="M47.5063 71.8346C47.0817 71.8346 46.6623 71.7413 46.2778 71.5612C45.8933 71.3811 45.5531 71.1187 45.2813 70.7925L35.48 59.0254C35.2089 58.7371 34.9997 58.3965 34.8652 58.0244C34.7307 57.6524 34.6737 57.2567 34.6977 56.8618C34.7218 56.4669 34.8264 56.081 35.0051 55.728C35.1837 55.375 35.4327 55.0623 35.7368 54.8091C36.0408 54.5559 36.3934 54.3675 36.7729 54.2556C37.1524 54.1437 37.5507 54.1106 37.9435 54.1584C38.3363 54.2062 38.7151 54.3337 39.0567 54.5333C39.3983 54.7329 39.6955 55.0003 39.93 55.3189L47.0698 63.8894L62.5125 37.1416C62.8972 36.4757 63.5307 35.9899 64.2736 35.791C65.0165 35.5921 65.808 35.6965 66.4739 36.0812C67.1398 36.4659 67.6257 37.0994 67.8245 37.8423C68.0234 38.5852 67.919 39.3766 67.5343 40.0426L50.013 70.3813C49.7796 70.7854 49.4521 71.1272 49.0584 71.3778C48.6647 71.6283 48.2163 71.7802 47.7514 71.8205C47.669 71.8283 47.5863 71.8321 47.5035 71.8317L47.5063 71.8346Z" fill="white"/>
</svg>
